<?xml version="1.0" ?>
<svg height="48px" version="1.1" viewBox="0 0 48 48" width="48px" xmlns="http://www.w3.org/2000/svg"><title/><desc/><g fill="none" fill-rule="evenodd" id="Page-1" stroke="none" stroke-width="1"><g id="Artboard-Copy" transform="translate(-227.000000, -549.000000)"><path d="M238.999,566 L238.999,585 C238.999,586.105 239.895,586.998 241,586.998 L261,586.998 C262.105,586.998 262.999,586.105 262.999,585 L262.999,577.786133 L258.824219,581.791016 L250.999,582.371338 L252.194214,574.418213 L262.999,564.373047 L262.999,559 C262.999,557.896 262.105,557 261,557 L247.999,557 L247.999,566 L238.999,566 Z M246.001,557 L246.001,564 L238.999,564 L246.001,557 Z M268.018193,570.557412 L263.926203,566.169289 L266.267542,563.985955 C266.671457,563.609298 267.304237,563.631395 267.680894,564.035311 L270.408887,566.960725 C270.785545,567.364641 270.763448,567.99742 270.359532,568.374078 L268.018193,570.557412 Z M266.555485,571.921408 L257.802769,580.083449 L252.955109,580.501982 L253.710779,575.695326 L262.463495,567.533286 L266.555485,571.921408 Z" fill="#000000" id="document-edit"/><g id="slices" transform="translate(47.000000, 9.000000)"/></g></g></svg>
