<?xml version="1.0" standalone="no"?>
<!DOCTYPE svg PUBLIC "-//W3C//DTD SVG 20010904//EN"
 "http://www.w3.org/TR/2001/REC-SVG-20010904/DTD/svg10.dtd">
<svg version="1.0" xmlns="http://www.w3.org/2000/svg"
 width="945.000000pt" height="1023.000000pt" viewBox="0 0 945.000000 1023.000000"
 preserveAspectRatio="xMidYMid meet">

<g transform="translate(0.000000,1023.000000) scale(0.100000,-0.100000)"
fill="#f44336" stroke="none">
<path d="M3453 10215 c-232 -63 -478 -231 -600 -410 -58 -86 -58 -86 -318
-707 l-237 -568 -1067 -2 -1066 -3 -45 -25 c-49 -28 -84 -73 -100 -129 -13
-48 -13 -505 1 -554 13 -49 63 -105 114 -128 36 -17 73 -19 387 -19 l348 0 3
-3302 3 -3303 21 -95 c68 -303 186 -530 375 -722 88 -89 174 -152 282 -204
l90 -44 3081 0 3081 0 72 35 c195 93 376 270 502 492 96 168 166 377 189 568
8 63 11 1051 11 3333 l0 3242 344 0 c236 0 354 4 377 12 54 18 87 48 114 102
25 49 25 53 25 305 0 145 -5 272 -10 293 -14 49 -52 93 -104 121 l-41 22
-1065 3 -1065 2 -139 333 c-402 959 -389 933 -525 1067 -132 131 -318 239
-478 281 -74 18 -119 19 -1292 18 -1008 0 -1225 -3 -1268 -14z m2385 -849 c15
-8 37 -25 48 -38 17 -18 334 -771 334 -792 0 -3 -673 -6 -1496 -6 -1193 0
-1495 3 -1491 13 121 296 323 767 335 781 10 10 31 27 47 37 29 18 76 19 1113
19 911 0 1087 -2 1110 -14z m1892 -4868 c0 -1940 -4 -3208 -10 -3263 -16 -150
-76 -299 -153 -380 l-44 -45 -2798 0 -2799 0 -42 45 c-43 47 -99 151 -130 245
-18 53 -19 171 -22 3313 l-2 3257 3000 0 3000 0 0 -3172z"/>
<path d="M2710 6364 c-19 -8 -50 -29 -68 -47 -66 -64 -62 70 -62 -2077 0
-2172 -5 -2016 69 -2083 61 -55 85 -59 388 -55 l271 3 43 30 c23 17 52 48 63
70 l21 40 0 1995 0 1995 -21 40 c-11 22 -40 54 -63 70 l-43 30 -281 2 c-236 2
-288 0 -317 -13z"/>
<path d="M4410 6358 c-26 -14 -57 -41 -75 -66 l-30 -44 0 -2008 0 -2008 30
-44 c18 -25 49 -52 75 -65 43 -22 54 -23 312 -23 220 0 275 3 306 15 47 20 79
50 103 97 18 36 19 91 19 2028 0 1937 -1 1992 -19 2028 -24 47 -56 77 -103 97
-31 12 -86 15 -306 15 -258 0 -269 -1 -312 -22z"/>
<path d="M6129 6360 c-48 -25 -96 -81 -108 -127 -15 -53 -15 -3933 0 -3986 13
-47 60 -102 110 -128 35 -17 61 -19 312 -19 267 0 275 1 318 23 29 16 54 40
74 72 l30 48 0 1997 0 1997 -30 48 c-20 32 -45 56 -74 72 -43 23 -50 23 -320
23 -252 -1 -279 -3 -312 -20z"/>
</g>
</svg>
